# xmcd
#
# Track frame offsets:
#	150
#	34760
#	67077
#	106886
#	140096
#	178068
#	212073
#	242396
#	275683
#	311587
#
# Disc length: 4606 seconds
#
# Revision: 1
# Processed by: cddbd v1.5.1PL2 Copyright (c) Steve Scherf et al.
# Submitted via: audiograbber 1.83.01
#
DISCID=9511fc0a
DTITLE=Various Artist - 2002-11  PromoUK CD2
DYEAR=2002
DGENRE=House
TTITLE0=Looseheadz - Like This (Waiting To Express) (Extended Vocal Mix)
TTITLE1=Ralf Gum Ft. Concha Buika - Nobody Can Touch (Ralf Gum's Original Touch
TTITLE1=)
TTITLE2=Louie Vega and Jay "Sinister" Sealée - Diamond Life (Dance Ritual Mix) (S
TTITLE2=tarring Julie McKnight)
TTITLE3=Bah Samba - And It's Beautiful (Jon Cutler's "Distant Music" Mix)
TTITLE4=Blak Beat Niks - 7 Days And 7 Nights (Stone's Club Mix)
TTITLE5=Monica - All Eyez On Me (Mauve Club Vocal)
TTITLE6=Morris T Ft. Taka Boom - The Third Pleasure (Nowheremen's "Everywhere" 
TTITLE6=Mix)
TTITLE7=Sweetspot - Sun's Gonna Shine (Mauve Remix)
TTITLE8=Funkface - Shine (Original "Funk" Mix)
TTITLE9=2 Vibe - Turn It Up (Joeski's Vocal Mix)
EXTD=
EXTT0=
EXTT1=
EXTT2=
EXTT3=
EXTT4=
EXTT5=
EXTT6=
EXTT7=
EXTT8=
EXTT9=
PLAYORDER=
